# xmcd
#
# Track frame offsets: 
#        150
#        11939
#        27901
#        46281
#        61062
#        80962
#        89510
#        100623
#        109546
#        120431
#        131463
#        139939
#
# Disc length: 2024 seconds
#
# Revision: 2
# Processed by: cddbd v1.5.2PL0 Copyright (c) Steve Scherf et al.
# Submitted via: ExactAudioCopyFreeDBPlugin 1.0
#
DISCID=9a07e60c
DTITLE=Drs. P - Drs. P
DYEAR=2003
DGENRE=Cult
TTITLE0=Het trapportaal
TTITLE1=De gezusters Karamazov
TTITLE2=Harde smart
TTITLE3=Quartier Putain
TTITLE4=Het hart eener deerne
TTITLE5=De grenadiertjes
TTITLE6=Ripsique
TTITLE7=Jubelzang
TTITLE8=De baardmijt
TTITLE9=Goud, goud
TTITLE10=Café Chantant
TTITLE11=Gelach
EXTD=
EXTT0=
EXTT1=
EXTT2=
EXTT3=
EXTT4=
EXTT5=
EXTT6=
EXTT7=
EXTT8=
EXTT9=
EXTT10=
EXTT11=
PLAYORDER=
